<svg xmlns="http://www.w3.org/2000/svg" xmlns:xlink="http://www.w3.org/1999/xlink" width="500" zoomAndPan="magnify" viewBox="0 0 375 374.999991" height="500" preserveAspectRatio="xMidYMid meet" version="1.0"><defs><g/><clipPath id="d3dd0dd0d1"><path d="M 64.648438 64.648438 L 310.648438 64.648438 L 310.648438 310.648438 L 64.648438 310.648438 Z M 64.648438 64.648438 " clip-rule="nonzero"/></clipPath><clipPath id="f64e4bc02e"><path d="M 122.070312 122.070312 L 252.570312 122.070312 L 252.570312 252.570312 L 122.070312 252.570312 Z M 122.070312 122.070312 " clip-rule="nonzero"/></clipPath></defs><rect x="-37.5" width="450" fill="#ffffff" y="-37.499999" height="449.999989" fill-opacity="1"/><rect x="-37.5" width="450" fill="#ffffff" y="-37.499999" height="449.999989" fill-opacity="1"/><rect x="-37.5" width="450" fill="#ffffff" y="-37.499999" height="449.999989" fill-opacity="1"/><g clip-path="url(#d3dd0dd0d1)"><path fill="#00bf63" d="M 298.351562 64.648438 L 76.949219 64.648438 C 70.160156 64.648438 64.648438 70.148438 64.648438 76.949219 L 64.648438 298.351562 C 64.648438 305.152344 70.160156 310.648438 76.949219 310.648438 L 298.351562 310.648438 C 305.140625 310.648438 310.648438 305.152344 310.648438 298.351562 L 310.648438 76.949219 C 310.648438 70.148438 305.140625 64.648438 298.351562 64.648438 Z M 286.050781 286.050781 L 89.25 286.050781 L 89.25 89.25 L 286.050781 89.25 Z M 286.050781 286.050781 " fill-opacity="1" fill-rule="nonzero"/></g><path fill="#00bf63" d="M 126.148438 212.25 C 132.941406 212.25 138.449219 206.753906 138.449219 199.949219 L 138.449219 175.351562 C 138.449219 168.546875 132.941406 163.050781 126.148438 163.050781 C 119.359375 163.050781 113.851562 168.546875 113.851562 175.351562 L 113.851562 199.949219 C 113.851562 206.753906 119.359375 212.25 126.148438 212.25 Z M 126.148438 212.25 " fill-opacity="1" fill-rule="nonzero"/><path fill="#00bf63" d="M 126.148438 261.449219 L 249.148438 261.449219 C 255.941406 261.449219 261.449219 255.953125 261.449219 249.148438 L 261.449219 126.148438 C 261.449219 119.347656 255.941406 113.851562 249.148438 113.851562 L 126.148438 113.851562 C 119.359375 113.851562 113.851562 119.347656 113.851562 126.148438 L 113.851562 136.394531 C 113.851562 143.199219 119.359375 148.695312 126.148438 148.695312 C 132.25 148.695312 137.304688 144.269531 138.277344 138.449219 L 236.851562 138.449219 L 236.851562 236.851562 L 138.277344 236.851562 C 137.304688 231.03125 132.25 226.605469 126.148438 226.605469 C 119.359375 226.605469 113.851562 232.101562 113.851562 238.90625 L 113.851562 249.148438 C 113.851562 255.953125 119.359375 261.449219 126.148438 261.449219 Z M 126.148438 261.449219 " fill-opacity="1" fill-rule="nonzero"/><path fill="#00bf63" d="M 212.25 187.648438 C 212.25 188.457031 212.210938 189.257812 212.132812 190.0625 C 212.054688 190.863281 211.933594 191.660156 211.777344 192.449219 C 211.621094 193.238281 211.425781 194.019531 211.191406 194.792969 C 210.957031 195.5625 210.6875 196.320312 210.378906 197.0625 C 210.070312 197.808594 209.726562 198.535156 209.34375 199.246094 C 208.964844 199.957031 208.550781 200.648438 208.105469 201.316406 C 207.65625 201.988281 207.175781 202.632812 206.667969 203.257812 C 206.15625 203.878906 205.613281 204.476562 205.046875 205.046875 C 204.476562 205.613281 203.878906 206.15625 203.257812 206.667969 C 202.632812 207.175781 201.988281 207.65625 201.316406 208.105469 C 200.648438 208.550781 199.957031 208.964844 199.246094 209.34375 C 198.535156 209.726562 197.808594 210.070312 197.0625 210.378906 C 196.320312 210.6875 195.5625 210.957031 194.792969 211.191406 C 194.019531 211.425781 193.238281 211.621094 192.449219 211.777344 C 191.660156 211.933594 190.863281 212.054688 190.0625 212.132812 C 189.257812 212.210938 188.457031 212.25 187.648438 212.25 C 186.84375 212.25 186.039062 212.210938 185.238281 212.132812 C 184.4375 212.054688 183.640625 211.933594 182.851562 211.777344 C 182.0625 211.621094 181.28125 211.425781 180.507812 211.191406 C 179.738281 210.957031 178.980469 210.6875 178.234375 210.378906 C 177.492188 210.070312 176.765625 209.726562 176.054688 209.34375 C 175.34375 208.964844 174.652344 208.550781 173.984375 208.105469 C 173.3125 207.65625 172.667969 207.175781 172.042969 206.667969 C 171.421875 206.15625 170.824219 205.613281 170.253906 205.046875 C 169.6875 204.476562 169.144531 203.878906 168.632812 203.257812 C 168.125 202.632812 167.644531 201.988281 167.195312 201.316406 C 166.75 200.648438 166.335938 199.957031 165.953125 199.246094 C 165.574219 198.535156 165.230469 197.808594 164.921875 197.0625 C 164.613281 196.320312 164.34375 195.5625 164.109375 194.792969 C 163.875 194.019531 163.679688 193.238281 163.523438 192.449219 C 163.367188 191.660156 163.246094 190.863281 163.167969 190.0625 C 163.089844 189.257812 163.050781 188.457031 163.050781 187.648438 C 163.050781 186.84375 163.089844 186.039062 163.167969 185.238281 C 163.246094 184.4375 163.367188 183.640625 163.523438 182.851562 C 163.679688 182.0625 163.875 181.28125 164.109375 180.507812 C 164.34375 179.738281 164.613281 178.980469 164.921875 178.234375 C 165.230469 177.492188 165.574219 176.765625 165.953125 176.054688 C 166.335938 175.34375 166.75 174.652344 167.195312 173.984375 C 167.644531 173.3125 168.125 172.667969 168.632812 172.042969 C 169.144531 171.421875 169.6875 170.824219 170.253906 170.253906 C 170.824219 169.6875 171.421875 169.144531 172.042969 168.632812 C 172.667969 168.125 173.3125 167.644531 173.984375 167.195312 C 174.652344 166.75 175.34375 166.335938 176.054688 165.953125 C 176.765625 165.574219 177.492188 165.230469 178.234375 164.921875 C 178.980469 164.613281 179.738281 164.34375 180.507812 164.109375 C 181.28125 163.875 182.0625 163.679688 182.851562 163.523438 C 183.640625 163.367188 184.4375 163.246094 185.238281 163.167969 C 186.039062 163.089844 186.84375 163.050781 187.648438 163.050781 C 188.457031 163.050781 189.257812 163.089844 190.0625 163.167969 C 190.863281 163.246094 191.660156 163.367188 192.449219 163.523438 C 193.238281 163.679688 194.019531 163.875 194.792969 164.109375 C 195.5625 164.34375 196.320312 164.613281 197.0625 164.921875 C 197.808594 165.230469 198.535156 165.574219 199.246094 165.953125 C 199.957031 166.335938 200.648438 166.75 201.316406 167.195312 C 201.988281 167.644531 202.632812 168.125 203.257812 168.632812 C 203.878906 169.144531 204.476562 169.6875 205.046875 170.253906 C 205.613281 170.824219 206.15625 171.421875 206.667969 172.042969 C 207.175781 172.667969 207.65625 173.3125 208.105469 173.984375 C 208.550781 174.652344 208.964844 175.34375 209.34375 176.054688 C 209.726562 176.765625 210.070312 177.492188 210.378906 178.234375 C 210.6875 178.980469 210.957031 179.738281 211.191406 180.507812 C 211.425781 181.28125 211.621094 182.0625 211.777344 182.851562 C 211.933594 183.640625 212.054688 184.4375 212.132812 185.238281 C 212.210938 186.039062 212.25 186.84375 212.25 187.648438 Z M 212.25 187.648438 " fill-opacity="1" fill-rule="nonzero"/><g clip-path="url(#f64e4bc02e)"><path fill="#000000" d="M 251.359375 186.109375 L 244.734375 186.109375 C 243.996094 155.230469 219.347656 130.5 188.515625 129.886719 L 188.515625 123.265625 C 188.515625 122.605469 187.980469 122.070312 187.320312 122.070312 C 186.660156 122.070312 186.125 122.605469 186.125 123.265625 L 186.125 129.886719 C 155.308594 130.515625 130.515625 155.308594 129.886719 186.125 L 123.265625 186.125 C 122.605469 186.125 122.070312 186.660156 122.070312 187.320312 C 122.070312 187.980469 122.605469 188.515625 123.265625 188.515625 L 129.886719 188.515625 C 130.515625 219.363281 155.386719 244.136719 186.125 244.75 L 186.125 251.375 C 186.125 252.035156 186.660156 252.570312 187.320312 252.570312 C 187.980469 252.570312 188.515625 252.035156 188.515625 251.375 L 188.515625 244.75 C 219.285156 244.121094 244.234375 219.207031 244.75 188.515625 L 251.375 188.515625 C 252.035156 188.515625 252.570312 187.980469 252.570312 187.320312 C 252.554688 186.644531 252.019531 186.109375 251.359375 186.109375 Z M 232.167969 186.109375 L 220.023438 186.109375 C 219.410156 168.960938 205.519531 155.023438 188.5 154.554688 L 188.5 142.425781 C 212.347656 143.070312 231.460938 162.214844 232.167969 186.109375 Z M 186.109375 178.730469 C 182.285156 179.25 179.25 182.285156 178.714844 186.125 L 167.4375 186.125 C 168.191406 176.121094 176.042969 168.363281 186.125 167.6875 L 186.125 178.730469 Z M 178.714844 188.5 C 179.234375 192.339844 182.253906 195.34375 186.109375 195.878906 L 186.109375 207.4375 C 175.867188 206.746094 167.796875 198.628906 167.390625 188.5 Z M 188.515625 195.894531 C 192.371094 195.375 195.34375 192.386719 195.878906 188.515625 L 207.265625 188.515625 C 206.792969 198.628906 198.535156 206.984375 188.53125 207.488281 L 188.53125 195.894531 Z M 195.878906 186.109375 C 195.375 182.253906 192.371094 179.25 188.515625 178.730469 L 188.515625 167.65625 C 198.363281 168.144531 206.480469 176.214844 207.21875 186.125 L 195.878906 186.125 Z M 186.109375 142.425781 L 186.109375 154.585938 C 168.820312 155.339844 155.152344 168.976562 154.554688 186.125 L 142.441406 186.125 C 142.929688 162.433594 162.371094 143.039062 186.109375 142.425781 Z M 142.457031 188.5 L 154.570312 188.5 C 155.199219 205.660156 169.105469 219.597656 186.109375 220.054688 L 186.109375 232.199219 C 162.230469 231.523438 143.210938 212.457031 142.457031 188.5 Z M 188.515625 232.199219 L 188.515625 220.023438 C 205.867188 219.269531 219.425781 205.722656 220.039062 188.5 L 232.183594 188.5 C 231.632812 212.253906 212.253906 231.617188 188.515625 232.199219 Z M 188.515625 232.199219 " fill-opacity="1" fill-rule="nonzero"/></g><g fill="#00bf63" fill-opacity="1"><g transform="translate(98.793756, 52.35028)"><g><path d="M 22.25 0.640625 C 14.976562 0.640625 9.625 -0.859375 6.1875 -3.859375 C 3.15625 -6.503906 1.640625 -10.113281 1.640625 -14.6875 C 1.640625 -19.257812 3.15625 -22.875 6.1875 -25.53125 C 9.625 -28.53125 14.976562 -30.03125 22.25 -30.03125 C 26.394531 -30.03125 29.835938 -29.5625 32.578125 -28.625 C 35.328125 -27.695312 37.484375 -26.429688 39.046875 -24.828125 C 40.617188 -23.222656 41.691406 -21.375 42.265625 -19.28125 L 29.0625 -19.28125 C 27.675781 -21.175781 25.40625 -22.125 22.25 -22.125 C 19.269531 -22.125 17.078125 -21.269531 15.671875 -19.5625 C 14.546875 -18.1875 13.984375 -16.5625 13.984375 -14.6875 C 13.984375 -12.8125 14.546875 -11.191406 15.671875 -9.828125 C 17.078125 -8.117188 19.269531 -7.265625 22.25 -7.265625 C 24.65625 -7.265625 26.460938 -7.472656 27.671875 -7.890625 C 28.878906 -8.304688 29.765625 -8.847656 30.328125 -9.515625 L 25.515625 -9.515625 L 25.515625 -14.6875 L 42.265625 -14.6875 L 42.265625 0.015625 L 37.140625 0.015625 L 36.09375 -2.828125 C 32.820312 -0.515625 28.207031 0.640625 22.25 0.640625 Z M 22.25 0.640625 "/></g></g><g transform="translate(143.521293, 52.35028)"><g><path d="M 22.25 0.640625 C 14.976562 0.640625 9.625 -0.859375 6.1875 -3.859375 C 3.15625 -6.503906 1.640625 -10.117188 1.640625 -14.703125 C 1.640625 -19.265625 3.15625 -22.875 6.1875 -25.53125 C 9.625 -28.53125 14.976562 -30.03125 22.25 -30.03125 C 29.519531 -30.03125 34.875 -28.53125 38.3125 -25.53125 C 41.34375 -22.875 42.859375 -19.265625 42.859375 -14.703125 C 42.859375 -10.117188 41.34375 -6.503906 38.3125 -3.859375 C 34.875 -0.859375 29.519531 0.640625 22.25 0.640625 Z M 22.25 -7.265625 C 25.226562 -7.265625 27.414062 -8.117188 28.8125 -9.828125 C 29.9375 -11.203125 30.5 -12.828125 30.5 -14.703125 C 30.5 -16.578125 29.9375 -18.195312 28.8125 -19.5625 C 27.414062 -21.289062 25.226562 -22.15625 22.25 -22.15625 C 19.269531 -22.15625 17.078125 -21.289062 15.671875 -19.5625 C 14.546875 -18.195312 13.984375 -16.578125 13.984375 -14.703125 C 13.984375 -12.828125 14.546875 -11.203125 15.671875 -9.828125 C 17.078125 -8.117188 19.269531 -7.265625 22.25 -7.265625 Z M 22.25 -7.265625 "/></g></g><g transform="translate(188.023243, 52.35028)"><g><path d="M 49.421875 0 L 36.921875 0 L 34.140625 -4.8125 L 15.59375 -4.8125 L 12.8125 0 L 0.3125 0 L 19.140625 -29.40625 L 30.59375 -29.40625 Z M 29.984375 -12.09375 L 24.875 -21.015625 L 19.75 -12.09375 Z M 29.984375 -12.09375 "/></g></g><g transform="translate(237.754685, 52.35028)"><g><path d="M 37.625 0 L 3.28125 0 L 3.28125 -29.421875 L 15.625 -29.421875 L 15.625 -7.28125 L 37.625 -7.28125 Z M 37.625 0 "/></g></g></g><g fill="#00bf63" fill-opacity="1"><g transform="translate(81.240482, 351.149684)"><g><path d="M 28.265625 0 L 16.796875 0 L 0.3125 -29.40625 L 12.8125 -29.40625 L 22.53125 -8.390625 L 32.234375 -29.40625 L 44.75 -29.40625 Z M 28.265625 0 "/></g></g><g transform="translate(126.296143, 351.149684)"><g><path d="M 49.421875 0 L 36.921875 0 L 34.140625 -4.8125 L 15.59375 -4.8125 L 12.8125 0 L 0.3125 0 L 19.140625 -29.40625 L 30.59375 -29.40625 Z M 29.984375 -12.09375 L 24.875 -21.015625 L 19.75 -12.09375 Z M 29.984375 -12.09375 "/></g></g><g transform="translate(176.027585, 351.149684)"><g><path d="M 20.6875 0.640625 C 13.507812 0.640625 8.457031 -0.847656 5.53125 -3.828125 C 3.070312 -6.335938 1.84375 -9.957031 1.84375 -14.6875 L 1.84375 -29.40625 L 14.1875 -29.40625 L 14.1875 -14.6875 C 14.1875 -12.632812 14.535156 -11.015625 15.234375 -9.828125 C 16.234375 -8.117188 18.050781 -7.265625 20.6875 -7.265625 C 23.351562 -7.265625 25.179688 -8.117188 26.171875 -9.828125 C 26.867188 -11.054688 27.21875 -12.675781 27.21875 -14.6875 L 27.21875 -29.40625 L 39.5625 -29.40625 L 39.5625 -14.515625 C 39.5625 -9.898438 38.335938 -6.335938 35.890625 -3.828125 C 32.953125 -0.847656 27.882812 0.640625 20.6875 0.640625 Z M 20.6875 0.640625 "/></g></g><g transform="translate(217.432856, 351.149684)"><g><path d="M 37.625 0 L 3.28125 0 L 3.28125 -29.421875 L 15.625 -29.421875 L 15.625 -7.28125 L 37.625 -7.28125 Z M 37.625 0 "/></g></g><g transform="translate(255.885002, 351.149684)"><g><path d="M 25.109375 0 L 12.75 0 L 12.75 -22.15625 L 1.234375 -22.15625 L 1.234375 -29.421875 L 36.625 -29.421875 L 36.625 -22.15625 L 25.109375 -22.15625 Z M 25.109375 0 "/></g></g></g></svg>