<svg xmlns="http://www.w3.org/2000/svg" xmlns:xlink="http://www.w3.org/1999/xlink" width="500" zoomAndPan="magnify" viewBox="0 0 375 374.999991" height="500" preserveAspectRatio="xMidYMid meet" version="1.0"><defs><g/><clipPath id="9cc6d716f7"><path d="M 54.160156 73.75 L 321 73.75 L 321 258.25 L 54.160156 258.25 Z M 54.160156 73.75 " clip-rule="nonzero"/></clipPath><clipPath id="e54d3f0a91"><path d="M 144 254.21875 L 186.320312 254.21875 L 186.320312 302.949219 L 144 302.949219 Z M 144 254.21875 " clip-rule="nonzero"/></clipPath><clipPath id="68e0676230"><path d="M 197.078125 254.21875 L 240 254.21875 L 240 302.949219 L 197.078125 302.949219 Z M 197.078125 254.21875 " clip-rule="nonzero"/></clipPath><clipPath id="102dd5b455"><path d="M 179 187.5 L 202 187.5 L 202 193 L 179 193 Z M 179 187.5 " clip-rule="nonzero"/></clipPath></defs><rect x="-37.5" width="450" fill="#ffffff" y="-37.499999" height="449.999989" fill-opacity="1"/><rect x="-37.5" width="450" fill="#ffffff" y="-37.499999" height="449.999989" fill-opacity="1"/><rect x="-37.5" width="450" fill="#00221c" y="-37.499999" height="449.999989" fill-opacity="1"/><g clip-path="url(#9cc6d716f7)"><path fill="#008545" d="M 291.828125 98.660156 L 284.582031 98.660156 L 264.351562 121.113281 L 265 121.695312 L 234.664062 121.695312 L 245.042969 98.660156 L 236.347656 98.660156 L 225.964844 121.695312 L 191.625 121.695312 L 191.625 98.660156 L 183.695312 98.660156 L 183.695312 121.695312 L 149.351562 121.695312 L 138.96875 98.660156 L 130.277344 98.660156 L 140.65625 121.695312 L 110.320312 121.695312 L 110.96875 121.113281 L 90.738281 98.660156 L 83.488281 98.660156 C 83.214844 98.660156 82.941406 98.6875 82.671875 98.742188 C 82.402344 98.796875 82.140625 98.875 81.882812 98.980469 C 81.628906 99.085938 81.386719 99.214844 81.160156 99.367188 C 80.929688 99.519531 80.71875 99.695312 80.523438 99.890625 C 80.328125 100.085938 80.15625 100.296875 80 100.527344 C 79.847656 100.753906 79.71875 100.996094 79.613281 101.25 C 79.507812 101.503906 79.429688 101.765625 79.375 102.039062 C 79.320312 102.308594 79.292969 102.578125 79.292969 102.855469 L 79.292969 106.257812 L 99.421875 128.601562 L 99.421875 152.878906 L 79.292969 142.972656 L 79.292969 151.804688 L 99.421875 161.710938 L 99.421875 191.570312 L 79.292969 192.234375 L 79.292969 200.164062 L 99.421875 199.5 L 99.421875 228.898438 L 79.292969 238.65625 L 79.292969 247.46875 L 106.832031 234.117188 L 268.488281 234.117188 L 296.027344 247.46875 L 296.027344 238.65625 L 275.898438 228.898438 L 275.898438 199.5 L 296.027344 200.167969 L 296.027344 192.238281 L 275.898438 191.574219 L 275.898438 161.710938 L 296.027344 151.804688 L 296.027344 142.972656 L 275.898438 152.878906 L 275.898438 128.601562 L 296.027344 106.257812 L 296.027344 102.855469 C 296.023438 102.578125 296 102.308594 295.945312 102.039062 C 295.890625 101.765625 295.808594 101.503906 295.703125 101.25 C 295.597656 100.996094 295.46875 100.753906 295.316406 100.527344 C 295.164062 100.296875 294.988281 100.085938 294.796875 99.890625 C 294.601562 99.695312 294.386719 99.519531 294.160156 99.367188 C 293.929688 99.214844 293.6875 99.085938 293.433594 98.980469 C 293.179688 98.875 292.917969 98.796875 292.648438 98.742188 C 292.375 98.6875 292.105469 98.660156 291.828125 98.660156 Z M 269.398438 125.660156 L 269.101562 125.660156 L 269.101562 125.390625 Z M 262.304688 129.625 L 262.304688 156.53125 L 232.34375 156.53125 L 232.34375 129.621094 Z M 262.304688 191.359375 L 232.34375 191.359375 L 232.34375 164.453125 L 262.304688 164.453125 Z M 113.011719 164.453125 L 142.972656 164.453125 L 142.972656 191.359375 L 113.011719 191.359375 Z M 150.902344 164.453125 L 183.695312 164.453125 L 183.695312 191.359375 L 150.898438 191.359375 Z M 191.625 164.453125 L 224.417969 164.453125 L 224.417969 191.359375 L 191.625 191.359375 Z M 224.417969 129.625 L 224.417969 156.53125 L 191.625 156.53125 L 191.625 129.621094 Z M 183.695312 156.527344 L 150.898438 156.527344 L 150.898438 129.621094 L 183.695312 129.621094 Z M 142.972656 129.621094 L 142.972656 156.527344 L 113.011719 156.527344 L 113.011719 129.621094 Z M 106.21875 125.390625 L 106.21875 125.660156 L 105.917969 125.660156 Z M 106.21875 230.152344 L 106.21875 230.769531 L 105.917969 230.152344 Z M 113.011719 199.285156 L 142.972656 199.285156 L 142.972656 226.191406 L 113.011719 226.191406 Z M 150.902344 199.285156 L 183.695312 199.285156 L 183.695312 226.191406 L 150.898438 226.191406 Z M 191.625 199.285156 L 224.417969 199.285156 L 224.417969 226.191406 L 191.625 226.191406 Z M 232.34375 199.285156 L 262.304688 199.285156 L 262.304688 226.191406 L 232.34375 226.191406 Z M 269.101562 230.769531 L 269.101562 230.152344 L 269.402344 230.152344 Z M 320.945312 102.855469 L 320.945312 258.242188 L 305.085938 258.242188 L 305.085938 102.855469 C 305.085938 102.023438 305.003906 101.199219 304.847656 100.378906 C 304.691406 99.5625 304.460938 98.765625 304.152344 97.992188 C 303.84375 97.21875 303.46875 96.480469 303.023438 95.777344 C 302.574219 95.074219 302.066406 94.417969 301.5 93.8125 C 300.929688 93.203125 300.308594 92.65625 299.636719 92.164062 C 298.960938 91.671875 298.25 91.25 297.496094 90.894531 C 296.742188 90.535156 295.964844 90.253906 295.15625 90.042969 C 294.351562 89.835938 293.535156 89.703125 292.703125 89.644531 C 292.414062 89.628906 292.125 89.601562 291.828125 89.601562 L 83.488281 89.601562 C 83.195312 89.601562 82.90625 89.628906 82.617188 89.644531 C 81.785156 89.703125 80.964844 89.835938 80.160156 90.042969 C 79.355469 90.253906 78.574219 90.539062 77.820312 90.894531 C 77.070312 91.25 76.355469 91.671875 75.683594 92.164062 C 75.011719 92.65625 74.390625 93.203125 73.820312 93.8125 C 73.25 94.417969 72.742188 95.074219 72.296875 95.777344 C 71.851562 96.480469 71.472656 97.21875 71.167969 97.992188 C 70.859375 98.765625 70.628906 99.5625 70.46875 100.378906 C 70.3125 101.199219 70.234375 102.023438 70.230469 102.855469 L 70.230469 258.242188 L 54.375 258.242188 L 54.375 102.855469 C 54.378906 101.902344 54.425781 100.953125 54.519531 100.003906 C 54.613281 99.054688 54.753906 98.113281 54.941406 97.179688 C 55.128906 96.246094 55.359375 95.324219 55.636719 94.410156 C 55.914062 93.5 56.234375 92.601562 56.601562 91.722656 C 56.964844 90.84375 57.375 89.984375 57.824219 89.140625 C 58.273438 88.300781 58.761719 87.484375 59.292969 86.695312 C 59.824219 85.902344 60.390625 85.136719 60.996094 84.402344 C 61.597656 83.664062 62.238281 82.960938 62.914062 82.285156 C 63.585938 81.613281 64.292969 80.972656 65.027344 80.367188 C 65.765625 79.761719 66.53125 79.195312 67.324219 78.667969 C 68.117188 78.136719 68.933594 77.648438 69.773438 77.199219 C 70.613281 76.746094 71.472656 76.339844 72.355469 75.976562 C 73.234375 75.609375 74.128906 75.289062 75.042969 75.011719 C 75.953125 74.734375 76.878906 74.503906 77.8125 74.316406 C 78.746094 74.128906 79.6875 73.988281 80.636719 73.894531 C 81.585938 73.800781 82.535156 73.753906 83.488281 73.75 L 291.828125 73.75 C 292.78125 73.753906 293.734375 73.800781 294.679688 73.894531 C 295.628906 73.988281 296.570312 74.128906 297.507812 74.316406 C 298.441406 74.503906 299.363281 74.734375 300.277344 75.011719 C 301.1875 75.289062 302.085938 75.609375 302.964844 75.976562 C 303.847656 76.339844 304.707031 76.746094 305.546875 77.195312 C 306.386719 77.644531 307.203125 78.136719 307.996094 78.664062 C 308.789062 79.195312 309.554688 79.761719 310.289062 80.367188 C 311.027344 80.972656 311.734375 81.609375 312.40625 82.285156 C 313.082031 82.957031 313.71875 83.664062 314.324219 84.398438 C 314.929688 85.136719 315.496094 85.902344 316.027344 86.691406 C 316.558594 87.484375 317.046875 88.300781 317.496094 89.140625 C 317.945312 89.980469 318.355469 90.84375 318.71875 91.722656 C 319.085938 92.601562 319.40625 93.5 319.683594 94.410156 C 319.960938 95.320312 320.191406 96.246094 320.378906 97.179688 C 320.566406 98.113281 320.707031 99.054688 320.800781 100.003906 C 320.894531 100.953125 320.941406 101.902344 320.945312 102.855469 Z M 320.945312 102.855469 " fill-opacity="1" fill-rule="nonzero"/></g><path fill="#ffffff" d="M 147.710938 286.78125 C 147.207031 286.78125 146.699219 286.570312 146.34375 286.15625 L 119.769531 254.953125 C 117.359375 252.117188 117.703125 247.847656 120.535156 245.433594 C 123.371094 243.023438 127.644531 243.367188 130.054688 246.195312 L 139.597656 257.40625 C 140.242188 258.160156 140.152344 259.289062 139.402344 259.933594 C 138.644531 260.570312 137.507812 260.488281 136.871094 259.730469 L 127.324219 248.523438 C 126.195312 247.199219 124.191406 247.035156 122.859375 248.164062 C 121.535156 249.292969 121.375 251.296875 122.503906 252.628906 L 149.074219 283.832031 C 149.71875 284.582031 149.621094 285.714844 148.871094 286.351562 C 148.535156 286.640625 148.125 286.78125 147.710938 286.78125 " fill-opacity="1" fill-rule="nonzero"/><path fill="#ffffff" d="M 179.945312 259.339844 C 179.914062 259.339844 179.886719 259.339844 179.859375 259.339844 C 178.871094 259.289062 178.109375 258.457031 178.148438 257.46875 L 179.109375 235.457031 C 179.242188 232.820312 177.226562 230.585938 174.605469 230.445312 C 173.335938 230.382812 172.125 230.816406 171.179688 231.664062 C 170.242188 232.511719 169.679688 233.683594 169.617188 234.953125 L 169.167969 246.964844 C 169.140625 247.703125 168.664062 248.355469 167.964844 248.589844 C 167.269531 248.835938 166.492188 248.625 166.007812 248.058594 L 145.824219 224.359375 C 144.699219 223.027344 142.695312 222.867188 141.363281 224 C 140.039062 225.128906 139.871094 227.132812 141.003906 228.464844 L 154.703125 244.542969 C 155.347656 245.300781 155.253906 246.433594 154.5 247.070312 C 153.742188 247.714844 152.613281 247.625 151.96875 246.867188 L 138.273438 230.789062 C 135.863281 227.953125 136.207031 223.679688 139.035156 221.269531 C 141.875 218.851562 146.140625 219.195312 148.558594 222.03125 L 165.757812 242.230469 L 166.03125 234.789062 C 166.269531 230.171875 170.191406 226.621094 174.792969 226.867188 C 179.382812 227.105469 182.929688 231.035156 182.691406 235.625 L 181.730469 257.621094 C 181.6875 258.589844 180.894531 259.339844 179.945312 259.339844 " fill-opacity="1" fill-rule="nonzero"/><path fill="#ffffff" d="M 136.03125 257.777344 C 135.527344 257.777344 135.023438 257.558594 134.664062 257.144531 L 120.96875 241.058594 C 118.558594 238.222656 118.902344 233.957031 121.734375 231.539062 C 124.570312 229.128906 128.84375 229.472656 131.253906 232.304688 L 147.148438 250.972656 C 147.792969 251.730469 147.703125 252.859375 146.945312 253.503906 C 146.195312 254.140625 145.0625 254.050781 144.425781 253.300781 L 128.519531 234.628906 C 127.394531 233.304688 125.390625 233.144531 124.058594 234.273438 C 122.734375 235.40625 122.574219 237.402344 123.699219 238.734375 L 137.398438 254.820312 C 138.042969 255.570312 137.949219 256.703125 137.195312 257.347656 C 136.859375 257.636719 136.445312 257.777344 136.03125 257.777344 " fill-opacity="1" fill-rule="nonzero"/><path fill="#ffffff" d="M 140.253906 247.429688 C 139.746094 247.429688 139.238281 247.21875 138.890625 246.804688 L 125.191406 230.71875 C 122.777344 227.882812 123.121094 223.617188 125.957031 221.199219 C 128.789062 218.789062 133.0625 219.132812 135.472656 221.960938 L 149.167969 238.046875 C 149.8125 238.796875 149.71875 239.933594 148.964844 240.578125 C 148.207031 241.214844 147.078125 241.128906 146.433594 240.375 L 132.746094 224.289062 C 131.609375 222.957031 129.605469 222.804688 128.28125 223.929688 C 126.953125 225.058594 126.789062 227.0625 127.917969 228.394531 L 141.613281 244.480469 C 142.257812 245.230469 142.167969 246.363281 141.417969 247 C 141.074219 247.289062 140.660156 247.429688 140.253906 247.429688 " fill-opacity="1" fill-rule="nonzero"/><g clip-path="url(#e54d3f0a91)"><path fill="#ffffff" d="M 182.96875 283.746094 L 182.984375 283.746094 Z M 148.710938 286.492188 L 158.871094 298.429688 C 159.816406 299.542969 161.496094 299.679688 162.609375 298.730469 L 181.808594 282.378906 C 182.492188 281.800781 182.816406 280.917969 182.683594 280.027344 L 179.664062 260.136719 Z M 160.894531 302.941406 C 159.128906 302.941406 157.371094 302.199219 156.136719 300.757812 L 144.816406 287.453125 C 144.171875 286.703125 144.261719 285.566406 145.019531 284.921875 L 179.789062 255.316406 C 180.285156 254.898438 180.972656 254.777344 181.574219 255.003906 C 182.183594 255.234375 182.625 255.773438 182.726562 256.410156 L 186.234375 279.488281 C 186.558594 281.617188 185.773438 283.71875 184.132812 285.113281 L 164.9375 301.457031 C 163.761719 302.460938 162.324219 302.941406 160.894531 302.941406 " fill-opacity="1" fill-rule="nonzero"/></g><path fill="#ffffff" d="M 235.679688 286.78125 C 235.269531 286.78125 234.855469 286.640625 234.519531 286.351562 C 233.769531 285.714844 233.675781 284.582031 234.316406 283.832031 L 260.886719 252.628906 C 262.015625 251.296875 261.855469 249.292969 260.53125 248.164062 C 259.199219 247.035156 257.195312 247.191406 256.066406 248.523438 L 246.519531 259.730469 C 245.882812 260.480469 244.746094 260.578125 243.996094 259.933594 C 243.242188 259.289062 243.148438 258.160156 243.792969 257.40625 L 253.335938 246.195312 C 255.753906 243.359375 260.019531 243.023438 262.855469 245.433594 C 265.6875 247.847656 266.03125 252.117188 263.613281 254.953125 L 237.046875 286.15625 C 236.695312 286.570312 236.1875 286.78125 235.679688 286.78125 " fill-opacity="1" fill-rule="nonzero"/><path fill="#ffffff" d="M 203.449219 259.339844 C 202.496094 259.339844 201.703125 258.589844 201.660156 257.621094 L 200.703125 235.609375 C 200.464844 231.035156 204.007812 227.105469 208.597656 226.867188 C 213.199219 226.613281 217.125 230.171875 217.355469 234.769531 L 217.632812 242.230469 L 234.832031 222.03125 C 237.25 219.195312 241.515625 218.851562 244.355469 221.269531 C 247.183594 223.679688 247.527344 227.953125 245.117188 230.789062 L 231.421875 246.867188 C 230.777344 247.625 229.648438 247.714844 228.894531 247.070312 C 228.136719 246.433594 228.046875 245.300781 228.691406 244.542969 L 242.386719 228.464844 C 243.519531 227.132812 243.351562 225.128906 242.027344 224 C 240.699219 222.867188 238.695312 223.027344 237.566406 224.359375 L 217.382812 248.058594 C 216.898438 248.625 216.121094 248.835938 215.425781 248.589844 C 214.726562 248.355469 214.25 247.703125 214.222656 246.964844 L 213.773438 234.921875 C 213.710938 233.683594 213.15625 232.511719 212.210938 231.664062 C 211.265625 230.816406 210.054688 230.382812 208.785156 230.445312 C 206.167969 230.585938 204.148438 232.820312 204.28125 235.441406 L 205.242188 257.46875 C 205.285156 258.457031 204.519531 259.289062 203.53125 259.339844 C 203.503906 259.339844 203.476562 259.339844 203.449219 259.339844 " fill-opacity="1" fill-rule="nonzero"/><path fill="#ffffff" d="M 247.359375 257.777344 C 246.945312 257.777344 246.535156 257.636719 246.195312 257.347656 C 245.441406 256.703125 245.347656 255.570312 245.992188 254.820312 L 259.691406 238.734375 C 260.816406 237.402344 260.65625 235.40625 259.332031 234.273438 C 258 233.144531 256.003906 233.296875 254.871094 234.628906 L 238.96875 253.300781 C 238.328125 254.050781 237.195312 254.148438 236.445312 253.503906 C 235.6875 252.859375 235.597656 251.730469 236.242188 250.972656 L 252.136719 232.304688 C 254.554688 229.472656 258.820312 229.128906 261.660156 231.539062 C 264.488281 233.957031 264.832031 238.222656 262.421875 241.058594 L 248.726562 257.144531 C 248.367188 257.558594 247.863281 257.777344 247.359375 257.777344 " fill-opacity="1" fill-rule="nonzero"/><path fill="#ffffff" d="M 243.136719 247.429688 C 242.730469 247.429688 242.316406 247.289062 241.980469 247 C 241.222656 246.363281 241.132812 245.230469 241.777344 244.480469 L 255.472656 228.394531 C 256.601562 227.0625 256.441406 225.058594 255.109375 223.929688 C 253.785156 222.796875 251.78125 222.957031 250.644531 224.289062 L 236.957031 240.375 C 236.3125 241.125 235.183594 241.214844 234.425781 240.578125 C 233.671875 239.933594 233.578125 238.796875 234.222656 238.046875 L 247.921875 221.960938 C 250.335938 219.125 254.605469 218.78125 257.441406 221.199219 C 260.273438 223.617188 260.613281 227.882812 258.199219 230.71875 L 244.5 246.804688 C 244.152344 247.21875 243.648438 247.429688 243.136719 247.429688 " fill-opacity="1" fill-rule="nonzero"/><g clip-path="url(#68e0676230)"><path fill="#ffffff" d="M 201.585938 282.378906 L 220.785156 298.730469 C 221.894531 299.679688 223.574219 299.542969 224.519531 298.429688 L 234.6875 286.492188 L 203.726562 260.136719 L 200.707031 280.027344 C 200.574219 280.917969 200.898438 281.800781 201.585938 282.378906 Z M 222.496094 302.941406 C 221.066406 302.941406 219.632812 302.460938 218.453125 301.457031 L 199.257812 285.113281 C 197.617188 283.71875 196.835938 281.617188 197.15625 279.496094 L 200.667969 256.410156 C 200.765625 255.773438 201.207031 255.234375 201.816406 255.003906 C 202.417969 254.777344 203.105469 254.898438 203.601562 255.316406 L 238.378906 284.921875 C 239.128906 285.566406 239.21875 286.703125 238.574219 287.453125 L 227.253906 300.757812 C 226.019531 302.199219 224.261719 302.941406 222.496094 302.941406 " fill-opacity="1" fill-rule="nonzero"/></g><path fill="#ffffff" d="M 179.285156 220.351562 C 178.640625 220.351562 178.023438 220.007812 177.703125 219.40625 C 177.679688 219.378906 177.632812 219.28125 177.535156 219.132812 C 176.992188 218.304688 177.226562 217.191406 178.050781 216.652344 C 178.886719 216.113281 179.992188 216.34375 180.539062 217.171875 C 180.726562 217.457031 180.824219 217.648438 180.859375 217.710938 C 181.332031 218.585938 181 219.671875 180.125 220.140625 C 179.859375 220.28125 179.566406 220.351562 179.285156 220.351562 " fill-opacity="1" fill-rule="nonzero"/><path fill="#ffffff" d="M 234.050781 227.511719 C 233.179688 227.511719 232.421875 226.886719 232.277344 226.011719 C 231.4375 220.808594 229.640625 215.902344 226.960938 211.425781 C 226.449219 210.578125 226.722656 209.476562 227.570312 208.96875 C 228.421875 208.457031 229.523438 208.730469 230.035156 209.582031 C 232.949219 214.445312 234.898438 219.785156 235.816406 225.429688 C 235.976562 226.410156 235.316406 227.328125 234.335938 227.492188 C 234.238281 227.503906 234.140625 227.511719 234.050781 227.511719 " fill-opacity="1" fill-rule="nonzero"/><path fill="#ffffff" d="M 149.335938 227.496094 C 149.238281 227.496094 149.144531 227.492188 149.046875 227.476562 C 148.066406 227.320312 147.402344 226.398438 147.5625 225.421875 C 148.339844 220.574219 149.882812 215.964844 152.125 211.71875 C 152.410156 211.1875 152.9375 210.835938 153.53125 210.773438 L 174.023438 208.695312 C 174.710938 208.617188 175.363281 208.945312 175.726562 209.519531 C 175.726562 209.519531 179.523438 215.558594 180.554688 217.199219 C 180.894531 217.746094 180.925781 218.445312 180.609375 219.011719 C 180.292969 219.585938 179.691406 219.945312 179.039062 219.945312 L 178.542969 219.945312 C 178.535156 219.945312 178.535156 219.945312 178.535156 219.945312 C 177.546875 219.945312 176.742188 219.144531 176.742188 218.160156 C 176.742188 218.074219 176.75 217.992188 176.753906 217.90625 C 175.71875 216.246094 174.136719 213.730469 173.28125 212.371094 L 154.863281 214.242188 C 153.054688 217.878906 151.757812 221.914062 151.101562 225.992188 C 150.960938 226.875 150.195312 227.496094 149.335938 227.496094 " fill-opacity="1" fill-rule="nonzero"/><path fill="#ffffff" d="M 182.515625 268.761719 C 181.925781 268.761719 181.359375 268.472656 181.007812 267.941406 C 180.46875 267.113281 180.699219 266.007812 181.535156 265.460938 L 191.082031 259.226562 C 191.664062 258.847656 192.414062 258.839844 193.003906 259.199219 L 201.933594 264.671875 C 202.773438 265.179688 203.042969 266.289062 202.523438 267.136719 C 202.003906 267.976562 200.90625 268.242188 200.058594 267.722656 L 192.097656 262.855469 L 183.496094 268.46875 C 183.195312 268.664062 182.851562 268.761719 182.515625 268.761719 " fill-opacity="1" fill-rule="nonzero"/><path fill="#ffffff" d="M 190.914062 255.984375 C 190.550781 255.984375 190.191406 255.871094 189.882812 255.652344 L 179.375 248.296875 C 178.5625 247.730469 178.375 246.609375 178.941406 245.796875 C 179.507812 244.984375 180.628906 244.789062 181.4375 245.355469 L 190.867188 251.96875 C 193.101562 250.28125 197.757812 246.761719 201.828125 243.695312 C 202.621094 243.09375 203.75 243.253906 204.335938 244.046875 C 204.941406 244.835938 204.777344 245.964844 203.988281 246.558594 C 199.078125 250.257812 193.308594 254.609375 192 255.613281 C 191.683594 255.855469 191.300781 255.984375 190.914062 255.984375 " fill-opacity="1" fill-rule="nonzero"/><path fill="#ffffff" d="M 191.65625 277.238281 C 188.882812 277.238281 186.109375 276.980469 183.355469 276.453125 C 182.382812 276.273438 181.742188 275.332031 181.925781 274.359375 C 182.113281 273.386719 183.054688 272.746094 184.019531 272.929688 C 189.105469 273.898438 194.269531 273.898438 199.371094 272.921875 C 200.351562 272.742188 201.28125 273.371094 201.464844 274.34375 C 201.65625 275.320312 201.015625 276.257812 200.042969 276.445312 C 197.253906 276.972656 194.460938 277.238281 191.65625 277.238281 " fill-opacity="1" fill-rule="nonzero"/><path fill="#ffffff" d="M 206.0625 231.15625 C 205.316406 231.15625 204.625 230.683594 204.367188 229.941406 L 200.800781 219.546875 L 179.867188 219.929688 L 177.015625 229.242188 C 176.726562 230.1875 175.726562 230.71875 174.78125 230.433594 C 173.828125 230.136719 173.296875 229.136719 173.589844 228.191406 L 176.820312 217.632812 C 177.050781 216.875 177.742188 216.363281 178.527344 216.359375 L 179.027344 216.359375 L 202.039062 215.9375 C 202.875 215.957031 203.519531 216.414062 203.769531 217.148438 L 207.761719 228.773438 C 208.078125 229.710938 207.582031 230.734375 206.648438 231.054688 C 206.453125 231.121094 206.257812 231.15625 206.0625 231.15625 " fill-opacity="1" fill-rule="nonzero"/><path fill="#ffffff" d="M 192.0625 262.527344 C 191.207031 262.527344 190.453125 261.910156 190.296875 261.039062 L 189.148438 254.496094 C 188.972656 253.523438 189.625 252.59375 190.597656 252.425781 C 191.578125 252.25 192.503906 252.898438 192.679688 253.875 L 193.828125 260.417969 C 194.003906 261.398438 193.351562 262.324219 192.378906 262.5 C 192.273438 262.519531 192.167969 262.527344 192.0625 262.527344 " fill-opacity="1" fill-rule="nonzero"/><path fill="#ffffff" d="M 209.039062 207.78125 L 225.074219 208.546875 C 219.703125 201.070312 211.722656 195.480469 202.851562 192.980469 Z M 228.492188 212.292969 C 228.464844 212.292969 228.4375 212.292969 228.410156 212.292969 L 207.742188 211.3125 C 207.046875 211.277344 206.4375 210.851562 206.167969 210.214844 L 198.1875 191.125 C 197.933594 190.515625 198.039062 189.8125 198.453125 189.300781 C 198.867188 188.785156 199.53125 188.546875 200.175781 188.664062 C 212.675781 191.03125 223.5625 198.660156 230.035156 209.589844 C 230.371094 210.15625 230.371094 210.867188 230.027344 211.425781 C 229.707031 211.964844 229.125 212.292969 228.492188 212.292969 " fill-opacity="1" fill-rule="nonzero"/><path fill="#ffffff" d="M 202.074219 219.523438 C 201.71875 219.523438 201.351562 219.417969 201.042969 219.203125 C 200.230469 218.628906 200.035156 217.515625 200.601562 216.703125 L 206.355469 208.492188 C 206.921875 207.683594 208.042969 207.488281 208.855469 208.054688 C 209.660156 208.625 209.859375 209.738281 209.289062 210.550781 L 203.539062 218.761719 C 203.195312 219.257812 202.636719 219.523438 202.074219 219.523438 " fill-opacity="1" fill-rule="nonzero"/><g clip-path="url(#102dd5b455)"><path fill="#ffffff" d="M 181.203125 192.75 C 180.398438 192.75 179.671875 192.210938 179.46875 191.398438 C 179.222656 190.4375 179.804688 189.464844 180.761719 189.21875 C 187.082031 187.621094 193.800781 187.429688 200.183594 188.671875 C 201.15625 188.851562 201.792969 189.800781 201.605469 190.773438 C 201.417969 191.738281 200.484375 192.382812 199.503906 192.1875 C 193.632812 191.046875 187.453125 191.222656 181.644531 192.699219 C 181.5 192.734375 181.34375 192.75 181.203125 192.75 " fill-opacity="1" fill-rule="nonzero"/></g><path fill="#ffffff" d="M 153.714844 214.355469 C 153.425781 214.355469 153.140625 214.285156 152.867188 214.144531 C 151.992188 213.675781 151.660156 212.589844 152.128906 211.714844 C 158.246094 200.25 168.417969 192.265625 180.777344 189.21875 C 181.421875 189.058594 182.09375 189.265625 182.535156 189.757812 C 182.976562 190.246094 183.117188 190.941406 182.894531 191.566406 L 175.90625 211.0625 C 175.859375 211.1875 175.804688 211.3125 175.726562 211.433594 C 175.179688 212.261719 174.066406 212.503906 173.230469 211.964844 C 172.480469 211.476562 172.214844 210.53125 172.574219 209.738281 L 178.332031 193.660156 C 168.46875 196.980469 160.371094 203.894531 155.296875 213.402344 C 154.976562 214.011719 154.351562 214.355469 153.714844 214.355469 " fill-opacity="1" fill-rule="nonzero"/><g fill="#008545" fill-opacity="1"><g transform="translate(111.462499, 51.299998)"><g><path d="M 19.078125 0.546875 C 12.835938 0.546875 8.25 -0.738281 5.3125 -3.3125 C 2.707031 -5.582031 1.40625 -8.675781 1.40625 -12.59375 C 1.40625 -16.507812 2.707031 -19.609375 5.3125 -21.890625 C 8.25 -24.453125 12.835938 -25.734375 19.078125 -25.734375 C 22.628906 -25.734375 25.582031 -25.332031 27.9375 -24.53125 C 30.289062 -23.738281 32.132812 -22.65625 33.46875 -21.28125 C 34.8125 -19.90625 35.734375 -18.320312 36.234375 -16.53125 L 24.90625 -16.53125 C 23.726562 -18.15625 21.785156 -18.96875 19.078125 -18.96875 C 16.515625 -18.96875 14.632812 -18.234375 13.4375 -16.765625 C 12.46875 -15.585938 11.984375 -14.195312 11.984375 -12.59375 C 11.984375 -10.976562 12.46875 -9.585938 13.4375 -8.421875 C 14.632812 -6.953125 16.515625 -6.21875 19.078125 -6.21875 C 21.140625 -6.21875 22.6875 -6.394531 23.71875 -6.75 C 24.757812 -7.113281 25.519531 -7.582031 26 -8.15625 L 21.875 -8.15625 L 21.875 -12.59375 L 36.234375 -12.59375 L 36.234375 0.015625 L 31.828125 0.015625 L 30.9375 -2.421875 C 28.132812 -0.441406 24.179688 0.546875 19.078125 0.546875 Z M 19.078125 0.546875 "/></g></g><g transform="translate(149.800387, 51.299998)"><g><path d="M 19.078125 0.546875 C 12.835938 0.546875 8.25 -0.738281 5.3125 -3.3125 C 2.707031 -5.582031 1.40625 -8.679688 1.40625 -12.609375 C 1.40625 -16.515625 2.707031 -19.609375 5.3125 -21.890625 C 8.25 -24.453125 12.835938 -25.734375 19.078125 -25.734375 C 25.304688 -25.734375 29.894531 -24.453125 32.84375 -21.890625 C 35.4375 -19.609375 36.734375 -16.515625 36.734375 -12.609375 C 36.734375 -8.679688 35.4375 -5.582031 32.84375 -3.3125 C 29.894531 -0.738281 25.304688 0.546875 19.078125 0.546875 Z M 19.078125 -6.21875 C 21.628906 -6.21875 23.503906 -6.953125 24.703125 -8.421875 C 25.660156 -9.609375 26.140625 -11.003906 26.140625 -12.609375 C 26.140625 -14.210938 25.660156 -15.597656 24.703125 -16.765625 C 23.503906 -18.242188 21.628906 -18.984375 19.078125 -18.984375 C 16.515625 -18.984375 14.632812 -18.242188 13.4375 -16.765625 C 12.46875 -15.597656 11.984375 -14.210938 11.984375 -12.609375 C 11.984375 -11.003906 12.46875 -9.609375 13.4375 -8.421875 C 14.632812 -6.953125 16.515625 -6.21875 19.078125 -6.21875 Z M 19.078125 -6.21875 "/></g></g><g transform="translate(187.944916, 51.299998)"><g><path d="M 42.359375 0 L 31.640625 0 L 29.265625 -4.125 L 13.359375 -4.125 L 10.984375 0 L 0.265625 0 L 16.40625 -25.203125 L 26.234375 -25.203125 Z M 25.703125 -10.375 L 21.328125 -18.015625 L 16.921875 -10.375 Z M 25.703125 -10.375 "/></g></g><g transform="translate(230.571866, 51.299998)"><g><path d="M 32.25 0 L 2.8125 0 L 2.8125 -25.21875 L 13.390625 -25.21875 L 13.390625 -6.234375 L 32.25 -6.234375 Z M 32.25 0 "/></g></g></g><g fill="#008545" fill-opacity="1"><g transform="translate(78.995061, 345.899977)"><g><path d="M 44.234375 0 L 30.484375 0 L 19.65625 -8.4375 L 13.390625 -4.171875 L 13.390625 0 L 2.8125 0 L 2.8125 -25.21875 L 13.390625 -25.21875 L 13.390625 -13.546875 L 30.375 -25.21875 L 44.234375 -25.21875 L 26.15625 -12.890625 Z M 44.234375 0 "/></g></g><g transform="translate(123.485292, 345.899977)"><g><path d="M 33.1875 0 L 2.8125 0 L 2.8125 -25.21875 L 31.796875 -25.21875 L 31.796875 -18.984375 L 13.390625 -18.984375 L 13.390625 -15.03125 L 28.953125 -15.03125 L 28.953125 -10.171875 L 13.390625 -10.171875 L 13.390625 -6.234375 L 33.1875 -6.234375 Z M 33.1875 0 "/></g></g><g transform="translate(158.07904, 345.899977)"><g><path d="M 33.1875 0 L 2.8125 0 L 2.8125 -25.21875 L 31.796875 -25.21875 L 31.796875 -18.984375 L 13.390625 -18.984375 L 13.390625 -15.03125 L 28.953125 -15.03125 L 28.953125 -10.171875 L 13.390625 -10.171875 L 13.390625 -6.234375 L 33.1875 -6.234375 Z M 33.1875 0 "/></g></g><g transform="translate(192.672788, 345.899977)"><g><path d="M 13.390625 0 L 2.8125 0 L 2.8125 -25.21875 L 20.015625 -25.21875 C 24.128906 -25.21875 27.445312 -24.910156 29.96875 -24.296875 C 32.5 -23.679688 34.34375 -22.710938 35.5 -21.390625 C 36.664062 -20.078125 37.25 -18.363281 37.25 -16.25 C 37.25 -14.132812 36.664062 -12.414062 35.5 -11.09375 C 34.34375 -9.78125 32.5 -8.816406 29.96875 -8.203125 C 27.445312 -7.585938 24.128906 -7.28125 20.015625 -7.28125 L 13.390625 -7.28125 Z M 13.390625 -13.5 L 19.4375 -13.515625 C 21.125 -13.515625 22.453125 -13.582031 23.421875 -13.71875 C 24.398438 -13.851562 25.117188 -14.039062 25.578125 -14.28125 C 26.046875 -14.53125 26.34375 -14.820312 26.46875 -15.15625 C 26.601562 -15.488281 26.671875 -15.851562 26.671875 -16.25 C 26.671875 -16.644531 26.601562 -17.007812 26.46875 -17.34375 C 26.34375 -17.675781 26.046875 -17.960938 25.578125 -18.203125 C 25.117188 -18.453125 24.398438 -18.644531 23.421875 -18.78125 C 22.453125 -18.914062 21.125 -18.984375 19.4375 -18.984375 L 13.390625 -18.984375 Z M 13.390625 -13.5 "/></g></g><g transform="translate(231.327082, 345.899977)"><g><path d="M 33.1875 0 L 2.8125 0 L 2.8125 -25.21875 L 31.796875 -25.21875 L 31.796875 -18.984375 L 13.390625 -18.984375 L 13.390625 -15.03125 L 28.953125 -15.03125 L 28.953125 -10.171875 L 13.390625 -10.171875 L 13.390625 -6.234375 L 33.1875 -6.234375 Z M 33.1875 0 "/></g></g><g transform="translate(265.92083, 345.899977)"><g><path d="M 37.25 0 L 27.25 0 C 26.789062 -0.632812 26.46875 -1.441406 26.28125 -2.421875 C 26.113281 -3.179688 25.863281 -3.925781 25.53125 -4.65625 C 25.207031 -5.394531 24.644531 -6.003906 23.84375 -6.484375 C 23.039062 -6.972656 21.847656 -7.238281 20.265625 -7.28125 L 13.390625 -7.28125 L 13.390625 0 L 2.8125 0 L 2.8125 -25.21875 L 20.015625 -25.21875 C 24.128906 -25.21875 27.445312 -24.910156 29.96875 -24.296875 C 32.5 -23.679688 34.34375 -22.710938 35.5 -21.390625 C 36.664062 -20.078125 37.25 -18.363281 37.25 -16.25 C 37.25 -14.476562 36.847656 -12.988281 36.046875 -11.78125 C 35.242188 -10.570312 33.972656 -9.613281 32.234375 -8.90625 C 33.910156 -8.21875 35 -7.390625 35.5 -6.421875 C 36 -5.453125 36.304688 -4.390625 36.421875 -3.234375 C 36.535156 -2.203125 36.8125 -1.125 37.25 0 Z M 13.390625 -13.5 L 19.4375 -13.515625 C 21.125 -13.515625 22.453125 -13.585938 23.421875 -13.734375 C 24.398438 -13.890625 25.117188 -14.097656 25.578125 -14.359375 C 26.046875 -14.628906 26.34375 -14.925781 26.46875 -15.25 C 26.601562 -15.570312 26.671875 -15.90625 26.671875 -16.25 C 26.671875 -16.582031 26.601562 -16.910156 26.46875 -17.234375 C 26.34375 -17.566406 26.046875 -17.863281 25.578125 -18.125 C 25.117188 -18.394531 24.398438 -18.601562 23.421875 -18.75 C 22.453125 -18.90625 21.125 -18.984375 19.4375 -18.984375 L 13.390625 -18.984375 Z M 13.390625 -13.5 "/></g></g></g></svg>