<svg xmlns="http://www.w3.org/2000/svg" xmlns:xlink="http://www.w3.org/1999/xlink" width="500" zoomAndPan="magnify" viewBox="0 0 375 374.999991" height="500" preserveAspectRatio="xMidYMid meet" version="1.0"><defs><clipPath id="f5bb0eaf28"><path d="M 38.542969 24.261719 L 336.292969 24.261719 L 336.292969 350.511719 L 38.542969 350.511719 Z M 38.542969 24.261719 " clip-rule="nonzero"/></clipPath></defs><g clip-path="url(#f5bb0eaf28)"><path fill="#00bf63" d="M 322.113281 81.0625 L 258.3125 81.0625 L 258.3125 71.070312 C 258.308594 69.539062 258.230469 68.015625 258.078125 66.492188 C 257.929688 64.972656 257.703125 63.460938 257.402344 61.960938 C 257.101562 60.460938 256.730469 58.980469 256.285156 57.519531 C 255.839844 56.054688 255.324219 54.617188 254.734375 53.207031 C 254.148438 51.792969 253.496094 50.414062 252.773438 49.0625 C 252.050781 47.714844 251.265625 46.40625 250.417969 45.136719 C 249.566406 43.863281 248.65625 42.636719 247.683594 41.457031 C 246.714844 40.273438 245.6875 39.140625 244.605469 38.0625 C 243.527344 36.980469 242.394531 35.953125 241.210938 34.984375 C 240.03125 34.011719 238.804688 33.101562 237.53125 32.253906 C 236.261719 31.402344 234.949219 30.617188 233.601562 29.894531 C 232.253906 29.175781 230.871094 28.519531 229.460938 27.933594 C 228.046875 27.347656 226.609375 26.832031 225.148438 26.386719 C 223.683594 25.941406 222.203125 25.570312 220.703125 25.269531 C 219.203125 24.96875 217.691406 24.742188 216.167969 24.589844 C 214.648438 24.4375 213.121094 24.363281 211.59375 24.359375 L 163.242188 24.359375 C 161.714844 24.363281 160.1875 24.4375 158.667969 24.589844 C 157.144531 24.742188 155.632812 24.96875 154.132812 25.269531 C 152.636719 25.570312 151.152344 25.941406 149.691406 26.386719 C 148.226562 26.832031 146.789062 27.347656 145.375 27.933594 C 143.964844 28.519531 142.582031 29.175781 141.234375 29.894531 C 139.886719 30.617188 138.578125 31.402344 137.304688 32.253906 C 136.035156 33.101562 134.808594 34.011719 133.625 34.984375 C 132.441406 35.953125 131.3125 36.980469 130.230469 38.0625 C 129.148438 39.140625 128.121094 40.273438 127.152344 41.457031 C 126.179688 42.636719 125.269531 43.863281 124.421875 45.136719 C 123.570312 46.40625 122.785156 47.714844 122.0625 49.0625 C 121.339844 50.414062 120.6875 51.792969 120.101562 53.207031 C 119.515625 54.617188 119 56.054688 118.554688 57.519531 C 118.109375 58.980469 117.734375 60.460938 117.433594 61.960938 C 117.136719 63.460938 116.910156 64.972656 116.757812 66.492188 C 116.605469 68.015625 116.527344 69.539062 116.527344 71.070312 L 116.527344 81.0625 L 52.722656 81.0625 C 51.789062 81.0625 50.867188 81.15625 49.957031 81.335938 C 49.042969 81.519531 48.15625 81.785156 47.296875 82.144531 C 46.4375 82.5 45.617188 82.9375 44.84375 83.453125 C 44.070312 83.96875 43.355469 84.558594 42.695312 85.214844 C 42.039062 85.875 41.449219 86.589844 40.933594 87.363281 C 40.414062 88.136719 39.980469 88.953125 39.621094 89.816406 C 39.265625 90.675781 38.996094 91.5625 38.816406 92.472656 C 38.632812 93.386719 38.542969 94.308594 38.542969 95.238281 C 38.542969 96.171875 38.632812 97.09375 38.816406 98.003906 C 38.996094 98.917969 39.265625 99.804688 39.621094 100.664062 C 39.980469 101.523438 40.414062 102.339844 40.933594 103.117188 C 41.449219 103.890625 42.039062 104.605469 42.695312 105.265625 C 43.355469 105.921875 44.070312 106.511719 44.84375 107.027344 C 45.617188 107.542969 46.4375 107.980469 47.296875 108.335938 C 48.15625 108.691406 49.042969 108.960938 49.957031 109.144531 C 50.867188 109.324219 51.789062 109.417969 52.722656 109.417969 L 73.988281 109.417969 L 73.988281 303.488281 C 73.992188 305.023438 74.070312 306.558594 74.222656 308.089844 C 74.375 309.617188 74.601562 311.136719 74.90625 312.644531 C 75.207031 314.152344 75.582031 315.640625 76.03125 317.113281 C 76.480469 318.585938 76.996094 320.03125 77.589844 321.449219 C 78.179688 322.871094 78.835938 324.257812 79.5625 325.613281 C 80.289062 326.96875 81.078125 328.285156 81.9375 329.5625 C 82.792969 330.839844 83.707031 332.074219 84.683594 333.261719 C 85.660156 334.449219 86.691406 335.585938 87.78125 336.671875 C 88.871094 337.757812 90.007812 338.789062 91.199219 339.761719 C 92.386719 340.738281 93.621094 341.652344 94.902344 342.503906 C 96.179688 343.359375 97.5 344.148438 98.855469 344.871094 C 100.210938 345.597656 101.601562 346.253906 103.019531 346.839844 C 104.441406 347.429688 105.890625 347.945312 107.359375 348.390625 C 108.832031 348.835938 110.324219 349.210938 111.832031 349.507812 C 113.339844 349.808594 114.859375 350.035156 116.390625 350.183594 C 117.917969 350.335938 119.453125 350.410156 120.992188 350.410156 L 253.914062 350.410156 C 255.453125 350.410156 256.984375 350.332031 258.515625 350.179688 C 260.042969 350.027344 261.558594 349.796875 263.066406 349.496094 C 264.574219 349.195312 266.0625 348.820312 267.53125 348.375 C 269 347.925781 270.445312 347.410156 271.863281 346.820312 C 273.285156 346.230469 274.671875 345.574219 276.023438 344.847656 C 277.378906 344.125 278.695312 343.335938 279.972656 342.480469 C 281.25 341.628906 282.480469 340.710938 283.667969 339.738281 C 284.855469 338.761719 285.992188 337.734375 287.082031 336.644531 C 288.167969 335.558594 289.199219 334.421875 290.171875 333.234375 C 291.148438 332.050781 292.0625 330.816406 292.914062 329.539062 C 293.769531 328.261719 294.558594 326.945312 295.285156 325.59375 C 296.007812 324.238281 296.667969 322.851562 297.253906 321.433594 C 297.84375 320.015625 298.363281 318.570312 298.808594 317.101562 C 299.257812 315.632812 299.632812 314.144531 299.933594 312.636719 C 300.234375 311.128906 300.460938 309.613281 300.613281 308.085938 C 300.765625 306.554688 300.84375 305.023438 300.847656 303.488281 L 300.847656 109.417969 L 322.113281 109.417969 C 323.046875 109.417969 323.96875 109.324219 324.882812 109.144531 C 325.792969 108.960938 326.679688 108.691406 327.539062 108.335938 C 328.402344 107.980469 329.21875 107.542969 329.992188 107.027344 C 330.765625 106.511719 331.480469 105.921875 332.140625 105.265625 C 332.800781 104.605469 333.386719 103.890625 333.902344 103.117188 C 334.421875 102.339844 334.859375 101.523438 335.214844 100.664062 C 335.570312 99.804688 335.839844 98.917969 336.019531 98.003906 C 336.203125 97.09375 336.292969 96.171875 336.292969 95.238281 C 336.292969 94.308594 336.203125 93.386719 336.019531 92.472656 C 335.839844 91.5625 335.570312 90.675781 335.214844 89.816406 C 334.859375 88.953125 334.421875 88.136719 333.902344 87.363281 C 333.386719 86.589844 332.800781 85.875 332.140625 85.214844 C 331.480469 84.558594 330.765625 83.96875 329.992188 83.453125 C 329.21875 82.9375 328.402344 82.5 327.539062 82.144531 C 326.679688 81.785156 325.792969 81.519531 324.882812 81.335938 C 323.96875 81.15625 323.046875 81.0625 322.113281 81.0625 Z M 144.882812 71.070312 C 144.882812 70.46875 144.914062 69.867188 144.972656 69.269531 C 145.03125 68.671875 145.117188 68.078125 145.234375 67.488281 C 145.351562 66.898438 145.5 66.316406 145.671875 65.742188 C 145.847656 65.164062 146.050781 64.601562 146.28125 64.042969 C 146.511719 63.488281 146.765625 62.945312 147.050781 62.414062 C 147.335938 61.886719 147.644531 61.371094 147.976562 60.871094 C 148.3125 60.371094 148.667969 59.886719 149.050781 59.421875 C 149.433594 58.957031 149.835938 58.511719 150.261719 58.089844 C 150.6875 57.664062 151.128906 57.261719 151.59375 56.878906 C 152.058594 56.496094 152.542969 56.140625 153.042969 55.804688 C 153.542969 55.472656 154.058594 55.164062 154.589844 54.878906 C 155.117188 54.597656 155.660156 54.339844 156.21875 54.109375 C 156.773438 53.878906 157.339844 53.675781 157.914062 53.503906 C 158.488281 53.328125 159.070312 53.179688 159.660156 53.0625 C 160.25 52.945312 160.847656 52.859375 161.445312 52.800781 C 162.042969 52.742188 162.644531 52.710938 163.242188 52.710938 L 211.59375 52.710938 C 212.195312 52.710938 212.792969 52.742188 213.390625 52.800781 C 213.992188 52.859375 214.585938 52.945312 215.175781 53.0625 C 215.765625 53.179688 216.347656 53.328125 216.921875 53.503906 C 217.5 53.675781 218.0625 53.878906 218.621094 54.109375 C 219.175781 54.339844 219.71875 54.597656 220.25 54.878906 C 220.777344 55.164062 221.292969 55.472656 221.792969 55.804688 C 222.292969 56.140625 222.777344 56.496094 223.242188 56.878906 C 223.707031 57.261719 224.152344 57.664062 224.578125 58.089844 C 225 58.511719 225.40625 58.957031 225.785156 59.421875 C 226.167969 59.886719 226.527344 60.371094 226.859375 60.871094 C 227.195312 61.371094 227.503906 61.886719 227.785156 62.414062 C 228.070312 62.945312 228.328125 63.488281 228.554688 64.042969 C 228.785156 64.601562 228.988281 65.164062 229.164062 65.742188 C 229.339844 66.316406 229.484375 66.898438 229.601562 67.488281 C 229.71875 68.078125 229.808594 68.671875 229.867188 69.269531 C 229.925781 69.867188 229.953125 70.46875 229.953125 71.070312 L 229.953125 81.0625 L 144.882812 81.0625 Z M 272.488281 303.488281 C 272.488281 304.09375 272.457031 304.699219 272.394531 305.304688 C 272.332031 305.910156 272.242188 306.511719 272.121094 307.105469 C 272 307.699219 271.851562 308.289062 271.675781 308.871094 C 271.496094 309.453125 271.289062 310.023438 271.058594 310.582031 C 270.824219 311.144531 270.5625 311.691406 270.277344 312.226562 C 269.988281 312.761719 269.675781 313.285156 269.339844 313.789062 C 269 314.292969 268.636719 314.78125 268.253906 315.25 C 267.867188 315.71875 267.457031 316.167969 267.027344 316.597656 C 266.597656 317.027344 266.148438 317.4375 265.679688 317.820312 C 265.210938 318.207031 264.722656 318.570312 264.21875 318.90625 C 263.714844 319.246094 263.191406 319.558594 262.65625 319.84375 C 262.121094 320.132812 261.574219 320.390625 261.011719 320.625 C 260.453125 320.859375 259.878906 321.066406 259.300781 321.242188 C 258.71875 321.421875 258.128906 321.570312 257.535156 321.691406 C 256.9375 321.808594 256.339844 321.902344 255.734375 321.960938 C 255.128906 322.023438 254.523438 322.054688 253.914062 322.058594 L 120.992188 322.058594 C 120.382812 322.058594 119.773438 322.027344 119.167969 321.96875 C 118.5625 321.910156 117.960938 321.820312 117.363281 321.703125 C 116.765625 321.582031 116.175781 321.4375 115.59375 321.257812 C 115.007812 321.082031 114.4375 320.878906 113.875 320.644531 C 113.308594 320.414062 112.757812 320.152344 112.222656 319.867188 C 111.683594 319.582031 111.164062 319.269531 110.65625 318.929688 C 110.148438 318.59375 109.660156 318.230469 109.1875 317.847656 C 108.714844 317.460938 108.265625 317.054688 107.832031 316.625 C 107.402344 316.195312 106.992188 315.742188 106.605469 315.273438 C 106.21875 314.804688 105.851562 314.316406 105.515625 313.808594 C 105.175781 313.304688 104.859375 312.785156 104.570312 312.246094 C 104.28125 311.710938 104.019531 311.160156 103.785156 310.601562 C 103.550781 310.039062 103.34375 309.464844 103.167969 308.882812 C 102.988281 308.300781 102.839844 307.710938 102.71875 307.113281 C 102.597656 306.515625 102.503906 305.914062 102.441406 305.308594 C 102.382812 304.703125 102.347656 304.097656 102.347656 303.488281 L 102.347656 109.417969 L 272.488281 109.417969 Z M 272.488281 303.488281 " fill-opacity="1" fill-rule="nonzero"/></g><path fill="#00bf63" d="M 151.972656 141.242188 C 151.039062 141.242188 150.117188 141.332031 149.207031 141.515625 C 148.292969 141.695312 147.40625 141.964844 146.546875 142.320312 C 145.6875 142.675781 144.867188 143.113281 144.09375 143.628906 C 143.320312 144.148438 142.605469 144.734375 141.945312 145.394531 C 141.289062 146.050781 140.699219 146.769531 140.183594 147.542969 C 139.664062 148.316406 139.230469 149.132812 138.871094 149.992188 C 138.515625 150.851562 138.246094 151.738281 138.066406 152.652344 C 137.882812 153.566406 137.792969 154.488281 137.792969 155.417969 L 137.792969 283.003906 C 137.792969 283.933594 137.882812 284.855469 138.066406 285.769531 C 138.246094 286.679688 138.515625 287.566406 138.871094 288.429688 C 139.230469 289.289062 139.664062 290.105469 140.183594 290.878906 C 140.699219 291.652344 141.289062 292.367188 141.945312 293.027344 C 142.605469 293.683594 143.320312 294.273438 144.09375 294.789062 C 144.867188 295.308594 145.6875 295.742188 146.546875 296.101562 C 147.40625 296.457031 148.292969 296.726562 149.207031 296.90625 C 150.117188 297.089844 151.039062 297.179688 151.972656 297.179688 C 152.902344 297.179688 153.824219 297.089844 154.738281 296.90625 C 155.652344 296.726562 156.539062 296.457031 157.398438 296.101562 C 158.257812 295.742188 159.074219 295.308594 159.847656 294.789062 C 160.625 294.273438 161.339844 293.683594 161.996094 293.027344 C 162.65625 292.367188 163.242188 291.652344 163.761719 290.878906 C 164.277344 290.105469 164.714844 289.289062 165.070312 288.429688 C 165.425781 287.566406 165.695312 286.679688 165.878906 285.769531 C 166.058594 284.855469 166.152344 283.933594 166.152344 283.003906 L 166.152344 155.417969 C 166.152344 154.488281 166.058594 153.566406 165.878906 152.652344 C 165.695312 151.738281 165.425781 150.851562 165.070312 149.992188 C 164.714844 149.132812 164.277344 148.316406 163.761719 147.542969 C 163.242188 146.769531 162.65625 146.050781 161.996094 145.394531 C 161.339844 144.734375 160.625 144.148438 159.847656 143.628906 C 159.074219 143.113281 158.257812 142.675781 157.398438 142.320312 C 156.539062 141.964844 155.652344 141.695312 154.738281 141.515625 C 153.824219 141.332031 152.902344 141.242188 151.972656 141.242188 Z M 151.972656 141.242188 " fill-opacity="1" fill-rule="nonzero"/><path fill="#00bf63" d="M 222.863281 141.242188 C 221.933594 141.242188 221.011719 141.332031 220.097656 141.515625 C 219.1875 141.695312 218.300781 141.964844 217.4375 142.320312 C 216.578125 142.675781 215.761719 143.113281 214.988281 143.628906 C 214.214844 144.148438 213.496094 144.734375 212.839844 145.394531 C 212.179688 146.050781 211.59375 146.769531 211.074219 147.542969 C 210.558594 148.316406 210.121094 149.132812 209.765625 149.992188 C 209.410156 150.851562 209.140625 151.738281 208.957031 152.652344 C 208.777344 153.566406 208.6875 154.488281 208.6875 155.417969 L 208.6875 283.003906 C 208.6875 283.933594 208.777344 284.855469 208.957031 285.769531 C 209.140625 286.679688 209.410156 287.566406 209.765625 288.429688 C 210.121094 289.289062 210.558594 290.105469 211.074219 290.878906 C 211.59375 291.652344 212.179688 292.367188 212.839844 293.027344 C 213.496094 293.683594 214.214844 294.273438 214.988281 294.789062 C 215.761719 295.308594 216.578125 295.742188 217.4375 296.101562 C 218.300781 296.457031 219.1875 296.726562 220.097656 296.90625 C 221.011719 297.089844 221.933594 297.179688 222.863281 297.179688 C 223.796875 297.179688 224.71875 297.089844 225.632812 296.90625 C 226.542969 296.726562 227.429688 296.457031 228.289062 296.101562 C 229.152344 295.742188 229.96875 295.308594 230.742188 294.789062 C 231.515625 294.273438 232.230469 293.683594 232.890625 293.027344 C 233.550781 292.367188 234.136719 291.652344 234.652344 290.878906 C 235.171875 290.105469 235.609375 289.289062 235.964844 288.429688 C 236.320312 287.566406 236.589844 286.679688 236.769531 285.769531 C 236.953125 284.855469 237.042969 283.933594 237.042969 283.003906 L 237.042969 155.417969 C 237.042969 154.488281 236.953125 153.566406 236.769531 152.652344 C 236.589844 151.738281 236.320312 150.851562 235.964844 149.992188 C 235.609375 149.132812 235.171875 148.316406 234.652344 147.542969 C 234.136719 146.769531 233.550781 146.050781 232.890625 145.394531 C 232.230469 144.734375 231.515625 144.148438 230.742188 143.628906 C 229.96875 143.113281 229.152344 142.675781 228.289062 142.320312 C 227.429688 141.964844 226.542969 141.695312 225.632812 141.515625 C 224.71875 141.332031 223.796875 141.242188 222.863281 141.242188 Z M 222.863281 141.242188 " fill-opacity="1" fill-rule="nonzero"/></svg>