<svg xmlns="http://www.w3.org/2000/svg" xmlns:xlink="http://www.w3.org/1999/xlink" width="500" zoomAndPan="magnify" viewBox="0 0 375 374.999991" height="500" preserveAspectRatio="xMidYMid meet" version="1.0"><defs><clipPath id="5a36c4ec3e"><path d="M 41.195312 22 L 320.195312 22 L 320.195312 353 L 41.195312 353 Z M 41.195312 22 " clip-rule="nonzero"/></clipPath></defs><g clip-path="url(#5a36c4ec3e)"><path fill="#00bf63" d="M 181.246094 22.199219 L 52.585938 22.199219 C 46.5 22.199219 41.558594 27.132812 41.558594 33.210938 L 41.558594 341.484375 C 41.558594 347.5625 46.5 352.492188 52.585938 352.492188 L 309.90625 352.492188 C 315.996094 352.492188 320.933594 347.5625 320.933594 341.484375 L 320.933594 187.347656 C 320.933594 181.269531 315.996094 176.335938 309.90625 176.335938 C 303.820312 176.335938 298.878906 181.269531 298.878906 187.347656 L 298.878906 330.472656 C 298.878906 330.472656 63.613281 330.472656 63.613281 330.472656 C 63.613281 330.472656 63.613281 44.21875 63.613281 44.21875 C 63.613281 44.21875 181.246094 44.21875 181.246094 44.21875 C 187.335938 44.21875 192.273438 39.289062 192.273438 33.210938 C 192.273438 27.132812 187.335938 22.199219 181.246094 22.199219 Z M 315.066406 100.136719 C 319.378906 95.832031 319.378906 88.863281 315.066406 84.558594 L 283.882812 53.425781 C 279.570312 49.121094 272.589844 49.121094 268.289062 53.425781 L 159.113281 162.410156 C 157.914062 163.621094 156.996094 165.097656 156.457031 166.714844 L 140.851562 213.429688 C 139.539062 217.382812 140.566406 221.742188 143.523438 224.691406 C 146.476562 227.644531 150.84375 228.675781 154.804688 227.355469 L 201.59375 211.789062 C 203.214844 211.25 204.691406 210.335938 205.90625 209.125 Z M 252.695312 100.136719 L 268.289062 115.707031 L 192.152344 191.71875 C 192.152344 191.71875 168.753906 199.5 168.753906 199.5 C 168.753906 199.5 176.550781 176.148438 176.550781 176.148438 Z M 268.289062 84.558594 L 276.085938 76.777344 L 291.679688 92.34375 L 283.882812 100.136719 Z M 268.289062 84.558594 " fill-opacity="1" fill-rule="evenodd"/></g></svg>